<?xml version="1.0" encoding="utf-8"?>
<!-- Generator: Adobe Illustrator 19.0.0, SVG Export Plug-In . SVG Version: 6.00 Build 0)  -->
<svg version="1.1" id="Layer_1" xmlns="http://www.w3.org/2000/svg" xmlns:xlink="http://www.w3.org/1999/xlink" x="0px" y="0px"
	 viewBox="-383 295 24 24" style="enable-background:new -383 295 24 24;" xml:space="preserve">
<style type="text/css">
	.st0{fill:#FFFFFF;}
</style>
<path class="st0" d="M-379.4,297l5.7,5.1c0.4,0.3,1,0.3,1.3,0l5.7-5.1H-379.4z M-365,298.3l-6,5.3c-1.1,1-2.9,1-4,0l-6-5.4v8.7h16
	V298.3z M-381,295h16c1.1,0,2,0.9,2,2v10c0,1.1-0.9,2-2,2h-16c-1.1,0-2-0.9-2-2v-10C-383,295.9-382.1,295-381,295z"/>
</svg>
